<?xml version="1.0" encoding="UTF-8" standalone="no"?>
<svg
   version="1.0"
   width="1024pt"
   height="1024pt"
   viewBox="0 0 1024 1024"
   preserveAspectRatio="xMidYMid"
   id="svg7"
   sodipodi:docname="icon.svg"
   inkscape:version="1.4.3 (0d15f75042, 2025-12-25)"
   inkscape:export-filename="icon_plain.svg"
   inkscape:export-xdpi="72"
   inkscape:export-ydpi="72"
   xmlns:inkscape="http://www.inkscape.org/namespaces/inkscape"
   xmlns:sodipodi="http://sodipodi.sourceforge.net/DTD/sodipodi-0.dtd"
   xmlns:xlink="http://www.w3.org/1999/xlink"
   xmlns="http://www.w3.org/2000/svg"
   xmlns:svg="http://www.w3.org/2000/svg">
  <defs
     id="defs7">
    <linearGradient
       id="linearGradient7"
       inkscape:collect="always">
      <stop
         style="stop-color:#6d4aff;stop-opacity:1;"
         offset="0"
         id="stop7" />
      <stop
         style="stop-color:#d090b0;stop-opacity:1;"
         offset="1"
         id="stop8" />
    </linearGradient>
    <linearGradient
       inkscape:collect="always"
       xlink:href="#linearGradient7"
       id="linearGradient8"
       x1="1511.7611"
       y1="1515.2063"
       x2="8739.5723"
       y2="8743.0176"
       gradientUnits="userSpaceOnUse" />
    <linearGradient
       inkscape:collect="always"
       xlink:href="#linearGradient7"
       id="linearGradient21"
       gradientUnits="userSpaceOnUse"
       x1="1511.7611"
       y1="1515.2063"
       x2="8739.5723"
       y2="8743.0176" />
    <linearGradient
       inkscape:collect="always"
       xlink:href="#linearGradient7"
       id="linearGradient22"
       gradientUnits="userSpaceOnUse"
       x1="1511.7611"
       y1="1515.2063"
       x2="8739.5723"
       y2="8743.0176" />
    <linearGradient
       inkscape:collect="always"
       xlink:href="#linearGradient7"
       id="linearGradient23"
       gradientUnits="userSpaceOnUse"
       x1="1511.7611"
       y1="1515.2063"
       x2="8739.5723"
       y2="8743.0176" />
    <linearGradient
       inkscape:collect="always"
       xlink:href="#linearGradient7"
       id="linearGradient24"
       gradientUnits="userSpaceOnUse"
       x1="1511.7611"
       y1="1515.2063"
       x2="8739.5723"
       y2="8743.0176" />
    <linearGradient
       inkscape:collect="always"
       xlink:href="#linearGradient7"
       id="linearGradient25"
       gradientUnits="userSpaceOnUse"
       x1="1511.7611"
       y1="1515.2063"
       x2="8739.5723"
       y2="8743.0176" />
    <linearGradient
       inkscape:collect="always"
       xlink:href="#linearGradient7"
       id="linearGradient26"
       gradientUnits="userSpaceOnUse"
       x1="1511.7611"
       y1="1515.2063"
       x2="8739.5723"
       y2="8743.0176" />
    <linearGradient
       inkscape:collect="always"
       xlink:href="#linearGradient7"
       id="linearGradient27"
       gradientUnits="userSpaceOnUse"
       x1="1511.7611"
       y1="1515.2063"
       x2="8739.5723"
       y2="8743.0176" />
  </defs>
  <sodipodi:namedview
     id="namedview7"
     pagecolor="#ffffff"
     bordercolor="#000000"
     borderopacity="0.25"
     inkscape:showpageshadow="2"
     inkscape:pageopacity="0.0"
     inkscape:pagecheckerboard="0"
     inkscape:deskcolor="#d1d1d1"
     inkscape:document-units="pt"
     inkscape:zoom="0.36181641"
     inkscape:cx="337.18758"
     inkscape:cy="755.90822"
     inkscape:window-width="1920"
     inkscape:window-height="1060"
     inkscape:window-x="0"
     inkscape:window-y="0"
     inkscape:window-maximized="0"
     inkscape:current-layer="svg7">
    <inkscape:page
       x="0"
       y="0"
       width="1024"
       height="1024"
       id="page2"
       margin="0"
       bleed="0" />
  </sodipodi:namedview>
  <metadata
     id="metadata1">
Created by potrace 1.16, written by Peter Selinger 2001-2019
</metadata>
  <g
     transform="matrix(0.07513451,0,0,-0.07515984,126.88557,897.50314)"
     fill="#000000"
     stroke="none"
     id="g7"
     style="fill:url(#linearGradient8)">
    <path
       d="m 5825,10230 c -1721,-6 -1572,1 -1642,-72 -44,-46 -63,-97 -63,-170 1,-104 54,-192 145,-241 40,-22 42,-22 899,-27 l 858,-5 -126,-108 c -141,-121 -278,-267 -391,-420 -42,-56 -85,-112 -94,-124 l -17,-23 -1280,-2 -1279,-3 -40,-22 c -47,-25 -96,-74 -121,-123 -26,-49 -26,-171 0,-220 25,-49 74,-98 121,-123 l 40,-22 1149,-3 c 978,-2 1147,-4 1143,-16 -53,-138 -126,-418 -147,-566 -6,-41 -13,-85 -16,-97 l -4,-23 -1808,-2 -1807,-3 -40,-22 c -92,-49 -139,-127 -139,-228 0,-103 48,-180 144,-231 34,-18 101,-19 1837,-22 l 1802,-2 6,-58 c 25,-232 83,-511 130,-634 7,-17 -73,-18 -1481,-20 l -1489,-3 -41,-22 c -190,-102 -190,-363 1,-466 l 40,-22 1605,-2 1605,-3 62,-97 c 98,-156 228,-318 370,-460 l 132,-133 -2267,-2 c -2189,-3 -2268,-4 -2302,-22 -49,-26 -98,-74 -123,-121 -30,-56 -30,-174 0,-230 25,-47 74,-95 123,-121 34,-18 119,-19 2533,-22 1981,-2 2497,-5 2497,-15 0,-6 -45,-163 -98,-347 l -98,-335 -1890,-5 -1889,-5 -40,-22 c -47,-25 -96,-74 -121,-123 -13,-25 -19,-56 -19,-110 0,-54 6,-85 19,-110 25,-49 74,-98 121,-123 l 40,-22 1813,-3 c 1717,-2 1813,-3 1808,-20 -16,-50 -196,-672 -196,-677 0,-2 -667,-6 -1482,-7 l -1483,-3 -40,-22 c -47,-25 -96,-74 -121,-123 -26,-49 -26,-171 0,-220 26,-49 74,-98 119,-122 38,-19 63,-19 1447,-18 l 1409,1 -20,-68 c -10,-37 -56,-195 -102,-351 l -83,-283 -1779,1 c -1871,0 -1827,1 -1910,-43 -38,-19 -87,-72 -111,-117 -25,-48 -25,-162 0,-210 25,-49 74,-98 121,-123 l 40,-22 1743,-3 c 958,-1 1742,-6 1742,-10 0,-4 -45,-158 -98,-342 l -98,-335 -1285,-5 -1284,-5 -40,-22 c -47,-25 -96,-74 -121,-123 -26,-49 -26,-171 0,-220 25,-48 74,-98 118,-121 36,-19 115,-19 3827,-19 h 3789 l 26,31 c 30,36 41,69 33,107 -3,15 -314,1115 -691,2445 -377,1329 -686,2423 -686,2430 0,6 33,29 73,51 272,146 573,401 777,656 311,391 503,833 587,1355 26,158 26,652 0,810 -28,175 -65,329 -117,485 -279,847 -932,1493 -1763,1744 -263,80 -464,107 -757,104 -113,-2 -902,-5 -1755,-8 z"
       id="path1"
       style="fill:url(#linearGradient21)" />
    <path
       d="m 3070,10209 c -100,-61 -144,-132 -144,-234 0,-101 47,-179 139,-228 38,-21 51,-22 340,-22 289,0 302,1 340,22 92,49 139,127 139,228 0,80 -20,129 -76,181 -72,69 -72,69 -403,72 -291,2 -301,2 -335,-19 z"
       id="path2"
       style="fill:url(#linearGradient22)" />
    <path
       d="m 1642,9011 c -104,-36 -162,-119 -162,-231 0,-106 53,-193 145,-243 38,-21 51,-22 340,-22 289,0 302,1 340,22 47,25 96,74 121,123 27,52 26,172 -3,225 -25,47 -74,95 -123,121 -31,17 -64,19 -320,21 -256,3 -290,1 -338,-16 z"
       id="path3"
       style="fill:url(#linearGradient23)" />
    <path
       d="M 200,7811 C 130,7789 69,7737 34,7670 7,7619 9,7508 37,7454 c 29,-54 89,-107 149,-130 44,-17 78,-19 319,-19 258,0 272,1 310,22 47,25 96,74 121,123 27,52 26,172 -3,225 -25,47 -74,95 -123,121 -31,17 -63,19 -310,21 -151,1 -286,-2 -300,-6 z"
       id="path4"
       style="fill:url(#linearGradient24)" />
    <path
       d="m 210,5381 c -45,-14 -85,-39 -116,-73 -54,-57 -69,-95 -69,-178 0,-54 6,-85 19,-110 25,-49 74,-98 121,-123 38,-21 52,-22 315,-22 263,0 277,1 315,22 47,25 96,74 121,123 27,52 26,172 -3,225 -25,47 -74,95 -123,121 -31,17 -63,19 -295,21 -143,1 -271,-2 -285,-6 z"
       id="path5"
       style="fill:url(#linearGradient25)" />
    <path
       d="m 1670,2941 c -45,-14 -85,-39 -116,-73 -54,-57 -69,-95 -69,-178 0,-54 6,-85 19,-110 25,-49 74,-98 121,-123 38,-21 52,-22 315,-22 263,0 277,1 315,22 47,25 96,74 121,123 27,52 26,172 -3,225 -25,47 -74,95 -123,121 -31,17 -63,19 -295,21 -143,1 -271,-2 -285,-6 z"
       id="path6"
       style="fill:url(#linearGradient26)" />
    <path
       d="m 640,1721 c -45,-14 -85,-39 -116,-73 -54,-57 -69,-95 -69,-178 0,-54 6,-85 19,-110 25,-49 74,-98 121,-123 38,-21 52,-22 320,-22 268,0 282,1 320,22 48,25 106,85 131,133 27,51 25,162 -3,215 -25,47 -74,95 -123,121 -31,17 -63,19 -305,21 -148,1 -281,-2 -295,-6 z"
       id="path7"
       style="fill:url(#linearGradient27)" />
  </g>
</svg>
